<svg width="13" height="16" viewBox="0 0 13 16" fill="none" xmlns="http://www.w3.org/2000/svg">
<path d="M5.39335 3.87055C6.84844 3.87055 7.99325 4.52857 8.60311 5.54257V0.461792H12.4869V15.1648H8.60311V13.6114C8.03605 14.6038 6.92334 15.305 5.37196 15.305C2.75066 15.305 0.664307 13.1368 0.664307 9.58777C0.664307 6.03878 2.75065 3.89212 5.39335 3.89212V3.87055ZM6.61306 7.26852C5.51104 7.26852 4.60162 8.06678 4.60162 9.57698C4.60162 11.0872 5.51104 11.8962 6.61306 11.8962C7.71507 11.8962 8.62451 11.0872 8.62451 9.57698C8.62451 8.06678 7.69367 7.26852 6.61306 7.26852Z" fill="#1DC763"/>
</svg>
