<svg width="12" height="13" viewBox="0 0 12 13" fill="none" xmlns="http://www.w3.org/2000/svg">
<path d="M6.14851 12.2942C2.87456 12.2942 0.531433 10.126 0.531433 6.57696C0.531433 3.02797 2.83176 0.881317 6.14851 0.881317C9.46526 0.881317 11.7228 3.0064 11.7228 6.4583C11.7228 6.76035 11.7014 7.07318 11.6586 7.37522H4.35105C4.42594 8.66968 5.1214 9.18747 5.98803 9.18747C6.73698 9.18747 7.15424 8.76677 7.36822 8.31371H11.4874C10.9739 10.6006 8.90891 12.305 6.14851 12.305V12.2942ZM4.37245 5.47667H7.78549C7.78549 4.48425 7.01514 3.94488 6.12711 3.94488C5.23908 3.94488 4.55434 4.46267 4.37245 5.47667Z" fill="#1DC763"/>
</svg>
