<svg width="10" height="10" viewBox="0 0 10 10" fill="none" xmlns="http://www.w3.org/2000/svg">
<path d="M0.628468 5.02955C0.574972 5.96803 0.788958 6.87416 1.24902 7.65084C1.70909 8.42752 2.39383 9.0316 3.21767 9.38758C4.04151 9.74356 4.96164 9.84064 5.87107 9.65726C6.78051 9.47388 7.62574 9.02081 8.32119 8.36279C9.00594 7.70477 9.4981 6.86337 9.73348 5.94646C9.96887 5.02955 9.93676 4.08027 9.63719 3.2173C9.33761 2.35432 8.79195 1.62079 8.0644 1.103C7.33686 0.585216 6.45953 0.304749 5.5501 0.304749C4.94024 0.304749 4.33039 0.423408 3.76333 0.660726C3.18558 0.898045 2.66132 1.24324 2.20125 1.68551C1.74119 2.12779 1.36671 2.64557 1.10993 3.2173C0.842449 3.78902 0.681961 4.40389 0.649863 5.02955" fill="#1DC763"/>
</svg>
